HIERARCHY
ROOT Hips
{
  OFFSET 5.84602e-005 68.8428 3.50346
  CHANNELS 6 Xposition Yposition Zposition Zrotation Xrotation Yrotation
  JOINT Spine
  {
    OFFSET 0 8.597 -4.6522
    CHANNELS 3 Zrotation Xrotation Yrotation
    JOINT Spine1
    {
      OFFSET 0 7.8454 0.4098
      CHANNELS 3 Zrotation Xrotation Yrotation
      JOINT Spine2
      {
        OFFSET 0 9.7078 -2.1609
        CHANNELS 3 Zrotation Xrotation Yrotation
        JOINT Neck
        {
          OFFSET 0 21.8761 -0.4549
          CHANNELS 3 Zrotation Xrotation Yrotation
          JOINT Head
          {
            OFFSET 0 12.3537 3.3602
            CHANNELS 3 Zrotation Xrotation Yrotation
            End Site
            {
              OFFSET 0.0001 18.9506 0.5657
            }
          }
        }
        JOINT LeftShoulder
        {
          OFFSET 2.2086 21.1115 7.2329
          CHANNELS 3 Zrotation Xrotation Yrotation
          JOINT LeftArm
          {
            OFFSET 13.1193 3.0282 -4.8998
            CHANNELS 3 Zrotation Xrotation Yrotation
            JOINT LeftForeArm
            {
              OFFSET 27.4081 -0.0973053 -0.2375
              CHANNELS 3 Zrotation Xrotation Yrotation
              JOINT LeftHand
              {
                OFFSET 22.8641 0.0662994 -0.1369
                CHANNELS 3 Zrotation Xrotation Yrotation
                JOINT LeftHandIndex1
                {
                  OFFSET 8.8614 0.775009 2.4612
                  CHANNELS 3 Zrotation Xrotation Yrotation
                  JOINT LeftHandIndex2
                  {
                    OFFSET 3.3146 -0.808304 0.5841
                    CHANNELS 3 Zrotation Xrotation Yrotation
                    JOINT LeftHandIndex3
                    {
                      OFFSET 2.2628 -0.552002 0.3989
                      CHANNELS 3 Zrotation Xrotation Yrotation
                      End Site
                      {
                        OFFSET 1.6102 -0.4807 0.2612
                      }
                    }
                  }
                }
                JOINT LeftHandMiddle1
                {
                  OFFSET 8.9937 0.895004 0.2143
                  CHANNELS 3 Zrotation Xrotation Yrotation
                  JOINT LeftHandMiddle2
                  {
                    OFFSET 4.0984 0.0113983 -0.0242
                    CHANNELS 3 Zrotation Xrotation Yrotation
                    JOINT LeftHandMiddle3
                    {
                      OFFSET 2.2716 0.00689697 -0.0138001
                      CHANNELS 3 Zrotation Xrotation Yrotation
                      End Site
                      {
                        OFFSET 2.0404 -0.1441 0.0027
                      }
                    }
                  }
                }
                JOINT LeftHandRing1
                {
                  OFFSET 8.5234 0.597198 -2.0164
                  CHANNELS 3 Zrotation Xrotation Yrotation
                  JOINT LeftHandRing2
                  {
                    OFFSET 3.7188 -0.188293 -0.2328
                    CHANNELS 3 Zrotation Xrotation Yrotation
                    JOINT LeftHandRing3
                    {
                      OFFSET 2.1191 -0.106598 -0.1332
                      CHANNELS 3 Zrotation Xrotation Yrotation
                      End Site
                      {
                        OFFSET 1.8737 -0.2304 -0.0886
                      }
                    }
                  }
                }
                JOINT LeftHandPinky1
                {
                  OFFSET 7.9094 -0.601089 -3.4825
                  CHANNELS 3 Zrotation Xrotation Yrotation
                  JOINT LeftHandPinky2
                  {
                    OFFSET 2.2874 -0.477005 -0.6314
                    CHANNELS 3 Zrotation Xrotation Yrotation
                    JOINT LeftHandPinky3
                    {
                      OFFSET 1.6774 -0.349396 -0.4633
                      CHANNELS 3 Zrotation Xrotation Yrotation
                      End Site
                      {
                        OFFSET 1.4888 -0.4091 -0.3416
                      }
                    }
                  }
                }
                JOINT LeftHandThumb1
                {
                  OFFSET 1.833 -1.3875 1.3896
                  CHANNELS 3 Zrotation Xrotation Yrotation
                  JOINT LeftHandThumb2
                  {
                    OFFSET 3.4129 -1.121 2.5732
                    CHANNELS 3 Zrotation Xrotation Yrotation
                    JOINT LeftHandThumb3
                    {
                      OFFSET 2.2474 -0.804199 1.6192
                      CHANNELS 3 Zrotation Xrotation Yrotation
                      End Site
                      {
                        OFFSET 1.6527 -0.5689 1.1317
                      }
                    }
                  }
                }
              }
            }
          }
        }
        JOINT RightShoulder
        {
          OFFSET -2.2086 21.1115 7.2329
          CHANNELS 3 Zrotation Xrotation Yrotation
          JOINT RightArm
          {
            OFFSET -13.1216 3.0287 -4.9007
            CHANNELS 3 Zrotation Xrotation Yrotation
            JOINT RightForeArm
            {
              OFFSET -27.4081 -0.0973053 -0.2375
              CHANNELS 3 Zrotation Xrotation Yrotation
              JOINT RightHand
              {
                OFFSET -22.8641 0.0664063 -0.1369
                CHANNELS 3 Zrotation Xrotation Yrotation
                JOINT RightHandIndex1
                {
                  OFFSET -8.8614 0.774994 2.4612
                  CHANNELS 3 Zrotation Xrotation Yrotation
                  JOINT RightHandIndex2
                  {
                    OFFSET -3.3146 -0.808304 0.5841
                    CHANNELS 3 Zrotation Xrotation Yrotation
                    JOINT RightHandIndex3
                    {
                      OFFSET -2.2628 -0.552002 0.3989
                      CHANNELS 3 Zrotation Xrotation Yrotation
                      End Site
                      {
                        OFFSET -1.6102 -0.4807 0.2612
                      }
                    }
                  }
                }
                JOINT RightHandMiddle1
                {
                  OFFSET -8.9937 0.894989 0.2143
                  CHANNELS 3 Zrotation Xrotation Yrotation
                  JOINT RightHandMiddle2
                  {
                    OFFSET -4.0984 0.0113983 -0.0242
                    CHANNELS 3 Zrotation Xrotation Yrotation
                    JOINT RightHandMiddle3
                    {
                      OFFSET -2.2716 0.00691223 -0.0138001
                      CHANNELS 3 Zrotation Xrotation Yrotation
                      End Site
                      {
                        OFFSET -2.0404 -0.1441 0.0027
                      }
                    }
                  }
                }
                JOINT RightHandRing1
                {
                  OFFSET -8.5234 0.597198 -2.0164
                  CHANNELS 3 Zrotation Xrotation Yrotation
                  JOINT RightHandRing2
                  {
                    OFFSET -3.7188 -0.188309 -0.2328
                    CHANNELS 3 Zrotation Xrotation Yrotation
                    JOINT RightHandRing3
                    {
                      OFFSET -2.1191 -0.106598 -0.1332
                      CHANNELS 3 Zrotation Xrotation Yrotation
                      End Site
                      {
                        OFFSET -1.8737 -0.2304 -0.0886
                      }
                    }
                  }
                }
                JOINT RightHandPinky1
                {
                  OFFSET -7.9094 -0.601105 -3.4825
                  CHANNELS 3 Zrotation Xrotation Yrotation
                  JOINT RightHandPinky2
                  {
                    OFFSET -2.2874 -0.477005 -0.6314
                    CHANNELS 3 Zrotation Xrotation Yrotation
                    JOINT RightHandPinky3
                    {
                      OFFSET -1.6774 -0.349396 -0.4633
                      CHANNELS 3 Zrotation Xrotation Yrotation
                      End Site
                      {
                        OFFSET -1.4888 -0.4091 -0.3416
                      }
                    }
                  }
                }
                JOINT RightHandThumb1
                {
                  OFFSET -1.833 -1.38751 1.3896
                  CHANNELS 3 Zrotation Xrotation Yrotation
                  JOINT RightHandThumb2
                  {
                    OFFSET -3.41299 -1.12099 2.5732
                    CHANNELS 3 Zrotation Xrotation Yrotation
                    JOINT RightHandThumb3
                    {
                      OFFSET -2.24741 -0.804108 1.6192
                      CHANNELS 3 Zrotation Xrotation Yrotation
                      End Site
                      {
                        OFFSET -1.6527 -0.5689 1.1317
                      }
                    }
                  }
                }
              }
            }
          }
        }
      }
    }
  }
  JOINT RightUpLeg
  {
    OFFSET -9.1966 3.8861 -0.7581
    CHANNELS 3 Zrotation Xrotation Yrotation
    JOINT RightLeg
    {
      OFFSET -0.7359 -41.0265 0
      CHANNELS 3 Zrotation Xrotation Yrotation
      JOINT RightFoot
      {
        OFFSET 0 -40.2855 0
        CHANNELS 3 Zrotation Xrotation Yrotation
        JOINT RightToeBase
        {
          OFFSET 0 -5.6122 11.7359
          CHANNELS 3 Zrotation Xrotation Yrotation
          End Site
          {
            OFFSET 0 0 7.8731
          }
        }
      }
    }
  }
  JOINT LeftUpLeg
  {
    OFFSET 9.1965 3.8864 -0.7581
    CHANNELS 3 Zrotation Xrotation Yrotation
    JOINT LeftLeg
    {
      OFFSET 0.7359 -41.0268 0
      CHANNELS 3 Zrotation Xrotation Yrotation
      JOINT LeftFoot
      {
        OFFSET 0 -40.2855 0
        CHANNELS 3 Zrotation Xrotation Yrotation
        JOINT LeftToeBase
        {
          OFFSET 0 -5.6122 11.7359
          CHANNELS 3 Zrotation Xrotation Yrotation
          End Site
          {
            OFFSET 0 0 7.8731
          }
        }
      }
    }
  }
}
MOTION
Frames:	4
Frame Time:	0.0333333
5.84602e-005 68.8428 3.50346 0 0 -0 0 0 -0 0 0 -0 0 0 -0 0 0 -0 0 0 -0 0 0 -0 0 0 -0 0 0 -0 0 0 -0 0 0 -0 0 0 -0 0 0 -0 0 0 -0 -0.0146107 -8.87603e-005 -2.63497e-007 2.99804e-018 -2.42657e-020 -1.42182e-022 0 0 -0 -0.0187562 -0.001176 5.858e-005 5.06224e-018 3.88251e-019 1.21329e-020 0 0 -0 -0.012269 -0.00324817 0.000675346 -1.74678e-018 3.88251e-019 -0 0 0 -0 0 0 -0 0 0 -0 0 0 -0 0 0 -0 0 0 -0 0 0 -0 0 0 -0 0 0 -0 0 0 -0 0 0 -0 0.0149955 -9.10982e-005 2.64101e-007 -9.69331e-018 1.21329e-020 -4.7394e-023 0 0 -0 0.0189956 -0.00119102 -5.96516e-005 -5.41541e-019 0 2.42657e-020 0 0 -0 0.0122698 -0.00324857 -0.000673756 -2.00796e-019 0 -1.94126e-019 0 0 -0 0 0 -0 0 0 -0 3.39842 1.33031 -0.0637918 -5.65207e-008 0.834868 -0.000436188 -3.39935 -2.16518 -0.0642563 -8.89002e-024 -1.18485e-023 -1.48106e-024 -3.39844 1.35642 0.0640283 -3.18788e-007 0.782166 -0.000588827 3.39931 -2.13858 0.0634662 1.1399e-023 0 -0 
0.99682 22.6228 -0.337284 -5.26717e-015 14.0006 180 -0.61414 18.3092 0.0480361 -1.35936 36.6168 0.345217 -1.35936 36.6168 0.345217 7.80786e-006 -0.295534 -4.28672e-006 0.326986 -0.564775 0.00161102 -11.2387 -19.0341 -18.2064 -24.0923 22.8136 -74.0735 11.4855 -13.155 0.117742 44.7389 7.09087 -13.0724 3.18055e-015 4.77083e-015 3.18055e-015 -4.73419e-007 6.51997e-007 2.8183e-007 1.18355e-007 -1.62999e-007 -7.04575e-008 3.18055e-015 4.77083e-015 3.18055e-015 -0.0146183 -8.96292e-005 -3.02465e-006 1.18354e-007 -1.6299e-007 -7.04784e-008 3.18055e-015 4.77083e-015 3.18055e-015 -0.018787 -0.0011786 5.76747e-005 1.18353e-007 -1.62988e-007 -7.04854e-008 3.18055e-015 4.77083e-015 3.18055e-015 -0.012253 -0.00324672 0.000679475 1.18351e-007 -1.62993e-007 -7.04783e-008 3.18055e-015 4.77083e-015 3.18055e-015 -4.73419e-007 6.51997e-007 2.8183e-007 1.18355e-007 -1.62999e-007 -7.04575e-008 9.7037 -19.1252 15.8801 24.1976 23.3061 75.1594 -11.3181 -13.0943 -0.11805 -39.4585 6.16167 11.516 4.7531e-007 6.46304e-007 -2.85421e-007 4.7531e-007 6.46304e-007 -2.85421e-007 4.7531e-007 6.46304e-007 -2.85421e-007 4.7531e-007 6.46304e-007 -2.85421e-007 0.0150041 -9.22463e-005 -2.48411e-006 4.75301e-007 6.46267e-007 -2.85506e-007 4.7531e-007 6.46304e-007 -2.85421e-007 0.0190186 -0.00119238 -5.25538e-005 -1.52896e-006 6.83503e-007 -2.75772e-006 4.7531e-007 6.46304e-007 -2.85421e-007 0.0122808 -0.00324687 -0.000673511 -1.52811e-006 6.83933e-007 -2.75757e-006 4.7531e-007 6.46304e-007 -2.85421e-007 4.7531e-007 6.46304e-007 -2.85421e-007 4.7531e-007 6.46304e-007 -2.85421e-007 -78.3844 -47.6483 -91.196 -163.888 73.1547 163.388 -0.582845 -18.259 -0.11291 2.78525e-007 3.33661e-007 3.17231e-006 78.3884 -47.7486 91.1192 163.96 73.1633 -163.457 0.503967 -18.2466 0.152967 5.29669e-031 4.77083e-015 -6.36111e-015 
0.99681 21.977 -0.246901 -5.36782e-015 13.2242 180 -0.609028 17.813 0.0368062 -1.33623 35.6249 0.309119 -1.33623 35.6249 0.309118 4.23881e-006 -0.294553 -4.33788e-006 0.626755 -1.09716 0.140387 -11.1752 -17.9915 -17.9711 -24.0923 22.8136 -74.0734 11.4855 -13.155 0.117747 44.2779 7.29163 -12.7397 -3.18055e-015 -4.77083e-015 6.36111e-015 2.36812e-007 -3.25983e-007 -1.40791e-007 -4.73623e-007 6.51965e-007 2.81583e-007 -3.18055e-015 -4.77083e-015 6.36111e-015 -0.0145863 -8.91139e-005 1.25387e-006 -4.73621e-007 6.5193e-007 2.81666e-007 -3.18055e-015 -4.77083e-015 6.36111e-015 -0.0187697 -0.00117807 6.20028e-005 -4.73617e-007 6.5192e-007 2.81694e-007 -3.18055e-015 -4.77083e-015 6.36111e-015 -0.0122113 -0.00323283 0.000671012 -4.7361e-007 6.51939e-007 2.81666e-007 -3.18055e-015 -4.77083e-015 6.36111e-015 2.36812e-007 -3.25983e-007 -1.40791e-007 -4.73623e-007 6.51965e-007 2.81583e-007 9.74955 -18.0755 15.7926 24.1976 23.3061 75.1594 -11.318 -13.0943 -0.118052 -38.9578 6.40941 11.2742 3.18055e-015 -1.59028e-015 3.18055e-015 0 0 -3.18055e-015 -6.36111e-015 -4.77083e-015 3.18055e-015 3.18055e-015 -1.59028e-015 3.18055e-015 0.0149729 -9.3844e-005 -1.1705e-005 2.00083e-006 -4.91123e-008 2.48209e-006 3.18055e-015 -1.59028e-015 3.18055e-015 0.0189703 -0.00118897 -5.89783e-005 3.18055e-015 0 6.36111e-015 3.18055e-015 -1.59028e-015 3.18055e-015 0.0122952 -0.00325344 -0.000673825 -3.18055e-015 0 3.18055e-015 3.18055e-015 -1.59028e-015 3.18055e-015 0 0 -3.18055e-015 -6.36111e-015 -4.77083e-015 3.18055e-015 -80.5493 -47.8873 -93.5847 -164.379 72.5158 163.814 -0.807389 -18.0113 -0.278091 2.97409e-007 -7.92885e-007 8.35098e-008 80.5577 -47.983 93.5166 164.444 72.5235 -163.877 0.732797 -17.9996 0.316029 -1.59028e-015 0 -1.59028e-014 
0.996802 21.3322 -0.155518 -5.46789e-015 12.4475 180 -0.603615 17.3158 0.0255121 -1.31318 34.6302 0.273448 -1.31318 34.6302 0.273448 -6.50423e-006 -0.293778 1.78347e-006 0.928662 -1.6302 0.282347 -11.1165 -16.9472 -17.738 -24.0923 22.8136 -74.0735 11.4855 -13.155 0.117757 43.8154 7.4898 -12.4052 -1.18462e-007 1.62983e-007 7.03273e-008 1.18462e-007 -1.62983e-007 -7.03273e-008 -2.36923e-007 3.25966e-007 1.40655e-007 -1.18462e-007 1.62983e-007 7.03273e-008 -0.014622 -8.96917e-005 2.56884e-006 -2.36922e-007 3.25948e-007 1.40696e-007 -1.18462e-007 1.62983e-007 7.03273e-008 -0.0187589 -0.00117746 6.32988e-005 -2.3692e-007 3.25943e-007 1.4071e-007 -1.18462e-007 1.62983e-007 7.03273e-008 -0.0122249 -0.00323597 0.000672856 -2.36917e-007 3.25952e-007 1.40696e-007 -1.18462e-007 1.62983e-007 7.03273e-008 1.18462e-007 -1.62983e-007 -7.03273e-008 -2.36923e-007 3.25966e-007 1.40655e-007 9.79689 -17.0246 15.7048 24.1976 23.3061 75.1594 -11.318 -13.0943 -0.118038 -38.4556 6.65511 11.0301 -1.04381e-006 1.3534e-006 -3.06411e-006 1.61356e-006 2.0385e-006 -2.45792e-006 9.51895e-007 1.29168e-006 -5.71484e-007 -1.04381e-006 1.3534e-006 -3.06411e-006 0.0149584 -8.62473e-005 3.27644e-006 -1.04583e-006 1.35301e-006 -3.06428e-006 -1.04381e-006 1.3534e-006 -3.06411e-006 0.0189907 -0.00119022 -5.90251e-005 9.51868e-007 1.29158e-006 -5.71708e-007 -1.04381e-006 1.3534e-006 -3.06411e-006 0.0122858 -0.00324967 -0.000677567 -1.04556e-006 1.35351e-006 -3.06413e-006 -1.04381e-006 1.3534e-006 -3.06411e-006 1.61356e-006 2.0385e-006 -2.45792e-006 9.51895e-007 1.29168e-006 -5.71484e-007 -82.7431 -48.0671 -96.0034 -164.837 71.8748 164.207 -1.03075 -17.7636 -0.442359 -1.09057e-006 4.94859e-007 -1.41059e-008 82.7554 -48.1585 95.9436 164.897 71.8819 -164.264 0.960483 -17.7527 0.478179 -5.40489e-007 6.45486e-006 -1.45079e-005 
